<svg width="36" height="36" viewBox="0 0 36 36" fill="none" xmlns="http://www.w3.org/2000/svg">
<g clip-path="url(#clip0_2193_13321)">
<path d="M25.9706 22.9185C30.4085 20.6419 33.7727 18.9071 34.0627 18.7722C34.9903 18.3113 35.9483 17.0914 34.0627 16.1438C33.4539 15.8458 30.1761 14.1651 25.9706 11.9975L20.1406 17.4985L25.9706 22.9184V22.9185Z" fill="#FFD900"/>
<path d="M20.1404 17.4985L1.57715 34.9784C2.01287 35.0323 2.50479 34.9244 3.08475 34.6265C4.30236 34.0038 17.2103 27.4178 25.9704 22.9198L20.1404 17.4985Z" fill="#F43249"/>
<path d="M20.1409 17.4985L25.9709 12.0246C25.9709 12.0246 4.39094 1.02114 3.08527 0.371601C2.59336 0.0993928 2.04211 0.0185352 1.54883 0.0993928L20.1409 17.4985Z" fill="#00EE76"/>
<path d="M20.1406 17.4985L1.54846 0.0994263C0.793906 0.262419 0.15625 0.885266 0.15625 2.15906V32.9188C0.15625 34.0847 0.649668 34.9244 1.5773 35.0054L20.1406 17.4985Z" fill="#00D3FF"/>
</g>
<defs>
<clipPath id="clip0_2193_13321">
<rect width="35" height="35" fill="white" transform="translate(0.15625 0.069519)"/>
</clipPath>
</defs>
</svg>
