<svg width="390" height="125" viewBox="0 0 390 125" fill="none" xmlns="http://www.w3.org/2000/svg">
<path d="M23.8872 101.469C22.8896 102.853 20.9344 103.133 19.6545 102.005C11.5841 94.8917 5.61252 85.4981 2.47658 74.919C-0.963096 63.3152 -0.816466 50.8746 2.89566 39.3628C6.60778 27.851 13.6968 17.8528 23.1567 10.7871C32.6165 3.72153 43.9666 -0.0525467 55.5961 0.000552401C67.2255 0.0536515 78.5436 3.93122 87.9439 11.083C97.3443 18.2347 104.349 28.2972 107.965 39.8425C111.581 51.3878 111.623 63.8293 108.086 75.4012C104.862 85.9511 98.8123 95.2897 90.6829 102.329C89.3933 103.446 87.441 103.149 86.4554 101.757L80.4784 93.3124C79.5492 91.9997 79.8292 90.1963 81.0278 89.1239C86.5788 84.1574 90.7153 77.6635 92.9493 70.3539C95.4707 62.1037 95.4404 53.2337 92.8627 45.0026C90.2849 36.7714 85.2907 29.5974 78.5888 24.4986C71.8869 19.3998 63.8178 16.6354 55.5266 16.5975C47.2355 16.5596 39.1435 19.2503 32.3992 24.2877C25.6548 29.3251 20.6008 36.4533 17.9542 44.6605C15.3077 52.8678 15.2032 61.7372 17.6555 70.0101C19.8283 77.3403 23.9108 83.8722 29.4206 88.8894C30.6096 89.972 30.8738 91.7775 29.9335 93.082L23.8872 101.469Z" fill="#00229B"/>
<path d="M17.9183 71.9338C17.8055 65.4487 23.0316 60.1309 29.5176 60.1309C34.2112 60.1309 38.4424 62.959 40.2371 67.2959L53.7173 99.8703C53.8059 100.084 54.0149 100.224 54.2466 100.224C54.4784 100.224 54.6873 100.084 54.7759 99.8703L68.2249 67.3713C70.0385 62.9888 74.3142 60.1309 79.0572 60.1309C85.5317 60.1309 90.7803 65.3795 90.7803 71.854V122.076C90.7803 123.629 89.5218 124.887 87.9692 124.887C86.6905 124.887 85.5729 124.024 85.2495 122.787L75.4741 85.3896C75.4311 85.225 75.2824 85.1101 75.1122 85.1101C74.9591 85.1101 74.8214 85.2034 74.7647 85.3456L60.9785 119.917C59.8806 122.67 57.2158 124.476 54.2517 124.476C51.2826 124.476 48.6142 122.664 47.5197 119.904L33.7271 85.122C33.6712 84.9812 33.5351 84.8888 33.3836 84.8888C33.2127 84.8888 33.0641 85.006 33.0243 85.1723L24.3179 121.573C24.0153 122.838 22.8842 123.731 21.5833 123.731C20.0494 123.731 18.7986 122.502 18.7719 120.968L17.9183 71.9338Z" fill="#00229B"/>
<path d="M150.562 47.6491C150.562 43.7135 151.442 40.213 153.204 37.1478C154.965 34.0447 157.412 31.6417 160.544 29.9388C163.715 28.198 167.297 27.3276 171.289 27.3276C176.183 27.3276 180.371 28.5764 183.855 31.074C187.339 33.5717 189.669 36.9775 190.843 41.2916H179.804C178.982 39.6265 177.807 38.3588 176.281 37.4884C174.793 36.618 173.09 36.1828 171.172 36.1828C168.079 36.1828 165.574 37.2235 163.656 39.3048C161.738 41.3862 160.779 44.1676 160.779 47.6491C160.779 51.1306 161.738 53.9121 163.656 55.9934C165.574 58.0748 168.079 59.1154 171.172 59.1154C173.09 59.1154 174.793 58.6802 176.281 57.8099C177.807 56.9395 178.982 55.6718 179.804 54.0067H190.843C189.669 58.3207 187.339 61.7266 183.855 64.2242C180.371 66.684 176.183 67.9138 171.289 67.9138C167.297 67.9138 163.715 67.0624 160.544 65.3595C157.412 63.6187 154.965 61.2157 153.204 58.1505C151.442 55.0852 150.562 51.5848 150.562 47.6491Z" fill="#00229B"/>
<path d="M210.989 68.0841C207.779 68.0841 204.882 67.4219 202.299 66.0974C199.754 64.7729 197.738 62.8808 196.251 60.421C194.802 57.9612 194.078 55.0852 194.078 51.7929C194.078 48.5384 194.822 45.6813 196.309 43.2215C197.797 40.7239 199.833 38.8129 202.416 37.4884C205 36.1639 207.897 35.5016 211.107 35.5016C214.317 35.5016 217.213 36.1639 219.797 37.4884C222.381 38.8129 224.416 40.7239 225.904 43.2215C227.391 45.6813 228.135 48.5384 228.135 51.7929C228.135 55.0474 227.372 57.9234 225.845 60.421C224.358 62.8808 222.302 64.7729 219.68 66.0974C217.096 67.4219 214.199 68.0841 210.989 68.0841ZM210.989 59.6831C212.907 59.6831 214.532 59.0019 215.863 57.6396C217.233 56.2772 217.918 54.3283 217.918 51.7929C217.918 49.2574 217.253 47.3085 215.922 45.9462C214.63 44.5839 213.025 43.9027 211.107 43.9027C209.149 43.9027 207.525 44.5839 206.233 45.9462C204.941 47.2707 204.295 49.2196 204.295 51.7929C204.295 54.3283 204.922 56.2772 206.174 57.6396C207.466 59.0019 209.071 59.6831 210.989 59.6831Z" fill="#00229B"/>
<path d="M274.353 35.6152C278.424 35.6152 281.654 36.8072 284.041 39.1913C286.469 41.5754 287.682 44.8866 287.682 49.125V67.63H277.7V50.4306C277.7 48.3871 277.132 46.8166 275.997 45.7191C274.901 44.5839 273.374 44.0162 271.417 44.0162C269.46 44.0162 267.913 44.5839 266.778 45.7191C265.682 46.8166 265.134 48.3871 265.134 50.4306V67.63H255.152V50.4306C255.152 48.3871 254.584 46.8166 253.449 45.7191C252.353 44.5839 250.826 44.0162 248.869 44.0162C246.911 44.0162 245.365 44.5839 244.23 45.7191C243.134 46.8166 242.586 48.3871 242.586 50.4306V67.63H232.545V35.9557H242.586V39.9292C243.603 38.6047 244.934 37.5641 246.579 36.8072C248.223 36.0125 250.082 35.6152 252.157 35.6152C254.623 35.6152 256.815 36.126 258.733 37.1478C260.691 38.1695 262.217 39.6265 263.314 41.5186C264.449 39.7779 265.995 38.3588 267.952 37.2613C269.91 36.1639 272.043 35.6152 274.353 35.6152Z" fill="#00229B"/>
<path d="M335.595 35.6152C339.666 35.6152 342.896 36.8072 345.284 39.1913C347.711 41.5754 348.924 44.8866 348.924 49.125V67.63H338.942V50.4306C338.942 48.3871 338.375 46.8166 337.239 45.7191C336.143 44.5839 334.617 44.0162 332.659 44.0162C330.702 44.0162 329.156 44.5839 328.02 45.7191C326.924 46.8166 326.376 48.3871 326.376 50.4306V67.63H316.394V50.4306C316.394 48.3871 315.826 46.8166 314.691 45.7191C313.595 44.5839 312.068 44.0162 310.111 44.0162C308.154 44.0162 306.607 44.5839 305.472 45.7191C304.376 46.8166 303.828 48.3871 303.828 50.4306V67.63H293.787V35.9557H303.828V39.9292C304.846 38.6047 306.177 37.5641 307.821 36.8072C309.465 36.0125 311.325 35.6152 313.399 35.6152C315.865 35.6152 318.058 36.126 319.976 37.1478C321.933 38.1695 323.46 39.6265 324.556 41.5186C325.691 39.7779 327.237 38.3588 329.195 37.2613C331.152 36.1639 333.286 35.6152 335.595 35.6152Z" fill="#00229B"/>
<path d="M360.079 32.6634C358.318 32.6634 356.869 32.1715 355.734 31.1876C354.638 30.1658 354.09 28.917 354.09 27.4412C354.09 25.9275 354.638 24.6786 355.734 23.6947C356.869 22.673 358.318 22.1621 360.079 22.1621C361.802 22.1621 363.211 22.673 364.307 23.6947C365.442 24.6786 366.01 25.9275 366.01 27.4412C366.01 28.917 365.442 30.1658 364.307 31.1876C363.211 32.1715 361.802 32.6634 360.079 32.6634ZM365.07 35.9557V67.63H355.029V35.9557H365.07Z" fill="#00229B"/>
<path d="M389.691 59.3993V67.63H384.583C380.942 67.63 378.104 66.7786 376.068 65.0757C374.033 63.3349 373.015 60.5156 373.015 56.6178V44.0162H369.022V35.9557H373.015V28.2359H383.056V35.9557H389.633V44.0162H383.056V56.7314C383.056 57.6774 383.291 58.3586 383.761 58.7749C384.23 59.1911 385.013 59.3993 386.109 59.3993H389.691Z" fill="#00229B"/>
<path d="M154.204 97.5857H159.742V98.7148H152.659V84.8692H154.204V97.5857Z" fill="#00229B"/>
<path d="M172.845 92.7527C172.845 93.2281 172.831 93.5912 172.801 93.8421H162.806C162.85 94.6608 163.071 95.3607 163.468 95.9417C163.865 96.5227 164.388 96.9651 165.035 97.2688C165.682 97.5593 166.388 97.7046 167.153 97.7046C168.153 97.7046 168.991 97.4867 169.668 97.0509C170.359 96.6152 170.815 96.0275 171.036 95.2881H172.669C172.375 96.3445 171.742 97.2094 170.771 97.8829C169.815 98.5431 168.609 98.8732 167.153 98.8732C166.02 98.8732 165.005 98.6488 164.108 98.1998C163.211 97.7376 162.505 97.0906 161.99 96.2586C161.49 95.4135 161.24 94.4297 161.24 93.3073C161.24 92.1849 161.49 91.2011 161.99 90.356C162.49 89.5108 163.189 88.8638 164.086 88.4148C164.983 87.9658 166.006 87.7413 167.153 87.7413C168.3 87.7413 169.3 87.9658 170.154 88.4148C171.021 88.8638 171.683 89.4712 172.139 90.2371C172.61 90.9898 172.845 91.8283 172.845 92.7527ZM171.279 92.7131C171.293 91.9076 171.11 91.2209 170.727 90.6531C170.359 90.0853 169.852 89.6561 169.205 89.3656C168.558 89.0751 167.852 88.9298 167.087 88.9298C165.939 88.9298 164.961 89.2599 164.152 89.9202C163.343 90.5804 162.895 91.5114 162.806 92.7131H171.279Z" fill="#00229B"/>
<path d="M174.965 93.2875C174.965 92.1783 175.208 91.2077 175.693 90.3758C176.193 89.5306 176.877 88.8836 177.745 88.4346C178.628 87.9724 179.62 87.7413 180.724 87.7413C181.871 87.7413 182.856 87.979 183.68 88.4544C184.519 88.9298 185.122 89.5372 185.489 90.2767V87.8998H187.034V98.7148H185.489V96.3181C185.107 97.0575 184.497 97.6716 183.658 98.1602C182.834 98.6356 181.849 98.8732 180.702 98.8732C179.613 98.8732 178.628 98.6422 177.745 98.18C176.877 97.7178 176.193 97.0641 175.693 96.219C175.208 95.3739 174.965 94.3967 174.965 93.2875ZM185.489 93.3073C185.489 92.4358 185.291 91.6699 184.894 91.0096C184.497 90.3494 183.952 89.841 183.261 89.4844C182.584 89.1279 181.834 88.9496 181.01 88.9496C180.157 88.9496 179.392 89.1213 178.716 89.4646C178.039 89.8079 177.502 90.3097 177.105 90.97C176.723 91.617 176.532 92.3895 176.532 93.2875C176.532 94.1722 176.723 94.9513 177.105 95.6248C177.502 96.285 178.039 96.7934 178.716 97.15C179.392 97.4933 180.157 97.665 181.01 97.665C181.834 97.665 182.584 97.4867 183.261 97.1302C183.952 96.7736 184.497 96.2652 184.894 95.605C185.291 94.9447 185.489 94.1788 185.489 93.3073Z" fill="#00229B"/>
<path d="M192.104 89.8212C192.443 89.1477 192.957 88.6261 193.649 88.2563C194.355 87.8866 195.215 87.7017 196.23 87.7017V89.1477H195.811C194.693 89.1477 193.796 89.4184 193.119 89.9598C192.443 90.5012 192.104 91.4058 192.104 92.6735V98.7148H190.56V87.8998H192.104V89.8212Z" fill="#00229B"/>
<path d="M204.202 87.7017C205.643 87.7017 206.82 88.1045 207.732 88.91C208.644 89.7023 209.1 90.8578 209.1 92.3763V98.7148H207.578V92.5348C207.578 91.3595 207.247 90.4616 206.585 89.841C205.938 89.2203 205.048 88.91 203.915 88.91C202.753 88.91 201.826 89.2401 201.135 89.9004C200.444 90.5606 200.098 91.5312 200.098 92.8121V98.7148H198.554V87.8998H200.098V89.7419C200.48 89.0817 201.032 88.5799 201.753 88.2365C202.474 87.88 203.29 87.7017 204.202 87.7017Z" fill="#00229B"/>
<path d="M212.781 98.8138C212.457 98.8138 212.185 98.7148 211.964 98.5167C211.758 98.3186 211.655 98.0743 211.655 97.7838C211.655 97.4933 211.758 97.2556 211.964 97.0707C212.185 96.8727 212.457 96.7736 212.781 96.7736C213.089 96.7736 213.347 96.8727 213.553 97.0707C213.773 97.2556 213.884 97.4933 213.884 97.7838C213.884 98.0743 213.773 98.3186 213.553 98.5167C213.347 98.7148 213.089 98.8138 212.781 98.8138Z" fill="#00229B"/>
<path d="M234.713 88.91C234.272 87.9988 233.595 87.2858 232.683 86.7708C231.786 86.2426 230.727 85.9785 229.506 85.9785C228.359 85.9785 227.329 86.2162 226.417 86.6915C225.505 87.1669 224.784 87.847 224.255 88.7317C223.725 89.6033 223.461 90.6201 223.461 91.7821C223.461 92.9442 223.725 93.9676 224.255 94.8523C224.784 95.737 225.505 96.4171 226.417 96.8925C227.329 97.3679 228.359 97.6056 229.506 97.6056C230.58 97.6056 231.543 97.4009 232.396 96.9915C233.264 96.569 233.956 95.9747 234.47 95.2088C235 94.4297 235.302 93.5252 235.375 92.4952H228.888V91.3661H237.008V92.3763C236.934 93.5912 236.567 94.6938 235.905 95.6842C235.243 96.6614 234.353 97.4339 233.235 98.0017C232.132 98.5695 230.889 98.8534 229.506 98.8534C228.079 98.8534 226.785 98.5563 225.623 97.9621C224.461 97.3547 223.542 96.5161 222.865 95.4465C222.203 94.3637 221.872 93.1422 221.872 91.7821C221.872 90.422 222.203 89.2071 222.865 88.1375C223.542 87.0547 224.461 86.2162 225.623 85.6219C226.785 85.0145 228.079 84.7108 229.506 84.7108C231.154 84.7108 232.595 85.0805 233.831 85.82C235.066 86.5595 235.963 87.5895 236.522 88.91H234.713Z" fill="#00229B"/>
<path d="M241.381 89.8212C241.72 89.1477 242.235 88.6261 242.926 88.2563C243.632 87.8866 244.492 87.7017 245.507 87.7017V89.1477H245.088C243.97 89.1477 243.073 89.4184 242.396 89.9598C241.72 90.5012 241.381 91.4058 241.381 92.6735V98.7148H239.837V87.8998H241.381V89.8212Z" fill="#00229B"/>
<path d="M253.104 98.8732C251.971 98.8732 250.949 98.6488 250.037 98.1998C249.14 97.7376 248.427 97.0906 247.897 96.2586C247.382 95.4135 247.125 94.4297 247.125 93.3073C247.125 92.1849 247.39 91.2077 247.919 90.3758C248.449 89.5306 249.169 88.8836 250.081 88.4346C250.993 87.9724 252.016 87.7413 253.148 87.7413C254.281 87.7413 255.303 87.9724 256.215 88.4346C257.142 88.8836 257.862 89.5306 258.377 90.3758C258.907 91.2077 259.172 92.1849 259.172 93.3073C259.172 94.4165 258.907 95.3937 258.377 96.2388C257.848 97.084 257.12 97.7376 256.193 98.1998C255.266 98.6488 254.237 98.8732 253.104 98.8732ZM253.104 97.665C253.898 97.665 254.634 97.5065 255.31 97.1896C255.987 96.8595 256.531 96.3709 256.943 95.7238C257.37 95.0636 257.583 94.2581 257.583 93.3073C257.583 92.3565 257.377 91.5576 256.965 90.9106C256.553 90.2503 256.009 89.7617 255.332 89.4448C254.656 89.1147 253.92 88.9496 253.126 88.9496C252.332 88.9496 251.596 89.1147 250.92 89.4448C250.243 89.7617 249.699 90.2503 249.287 90.9106C248.89 91.5576 248.691 92.3565 248.691 93.3073C248.691 94.2581 248.89 95.0636 249.287 95.7238C249.699 96.3709 250.236 96.8595 250.898 97.1896C251.574 97.5065 252.31 97.665 253.104 97.665Z" fill="#00229B"/>
<path d="M277.873 87.8998L274.1 98.7148H272.556L269.224 89.6429L265.892 98.7148H264.326L260.553 87.8998H262.119L265.12 97.3084L268.496 87.8998H270.04L273.372 97.3282L276.35 87.8998H277.873Z" fill="#00229B"/>
<path d="M280.243 98.8138C279.92 98.8138 279.647 98.7148 279.427 98.5167C279.221 98.3186 279.118 98.0743 279.118 97.7838C279.118 97.4933 279.221 97.2556 279.427 97.0707C279.647 96.8727 279.92 96.7736 280.243 96.7736C280.552 96.7736 280.809 96.8727 281.015 97.0707C281.236 97.2556 281.346 97.4933 281.346 97.7838C281.346 98.0743 281.236 98.3186 281.015 98.5167C280.809 98.7148 280.552 98.8138 280.243 98.8138Z" fill="#00229B"/>
<path d="M299.065 84.8692V86.0181H294.784V98.7148H293.24V86.0181H288.938V84.8692H299.065Z" fill="#00229B"/>
<path d="M306.777 98.8732C305.644 98.8732 304.622 98.6488 303.71 98.1998C302.813 97.7376 302.099 97.0906 301.57 96.2586C301.055 95.4135 300.798 94.4297 300.798 93.3073C300.798 92.1849 301.062 91.2077 301.592 90.3758C302.121 89.5306 302.842 88.8836 303.754 88.4346C304.666 87.9724 305.688 87.7413 306.821 87.7413C307.954 87.7413 308.976 87.9724 309.888 88.4346C310.814 88.8836 311.535 89.5306 312.05 90.3758C312.58 91.2077 312.844 92.1849 312.844 93.3073C312.844 94.4165 312.58 95.3937 312.05 96.2388C311.52 97.084 310.792 97.7376 309.866 98.1998C308.939 98.6488 307.909 98.8732 306.777 98.8732ZM306.777 97.665C307.571 97.665 308.307 97.5065 308.983 97.1896C309.66 96.8595 310.204 96.3709 310.616 95.7238C311.042 95.0636 311.256 94.2581 311.256 93.3073C311.256 92.3565 311.05 91.5576 310.638 90.9106C310.226 90.2503 309.682 89.7617 309.005 89.4448C308.329 89.1147 307.593 88.9496 306.799 88.9496C306.005 88.9496 305.269 89.1147 304.592 89.4448C303.916 89.7617 303.372 90.2503 302.96 90.9106C302.563 91.5576 302.364 92.3565 302.364 93.3073C302.364 94.2581 302.563 95.0636 302.96 95.7238C303.372 96.3709 303.908 96.8595 304.57 97.1896C305.247 97.5065 305.982 97.665 306.777 97.665Z" fill="#00229B"/>
<path d="M320.712 87.7413C321.845 87.7413 322.83 87.979 323.669 88.4544C324.507 88.9298 325.11 89.5306 325.478 90.2569V87.8998H327.023V98.9921C327.023 99.9825 326.78 100.861 326.294 101.627C325.824 102.392 325.162 102.98 324.309 103.389C323.456 103.812 322.485 104.023 321.396 104.023C319.852 104.023 318.565 103.693 317.535 103.033C316.52 102.373 315.888 101.475 315.638 100.339H317.16C317.425 101.092 317.925 101.693 318.66 102.142C319.411 102.59 320.322 102.815 321.396 102.815C322.176 102.815 322.875 102.663 323.492 102.359C324.11 102.069 324.596 101.633 324.949 101.052C325.302 100.471 325.478 99.7844 325.478 98.9921V96.3181C325.096 97.0575 324.485 97.6716 323.647 98.1602C322.823 98.6356 321.845 98.8732 320.712 98.8732C319.609 98.8732 318.616 98.6422 317.734 98.18C316.866 97.7178 316.182 97.0641 315.682 96.219C315.196 95.3739 314.954 94.3967 314.954 93.2875C314.954 92.1783 315.196 91.2077 315.682 90.3758C316.182 89.5306 316.866 88.8836 317.734 88.4346C318.616 87.9724 319.609 87.7413 320.712 87.7413ZM325.478 93.3073C325.478 92.4358 325.279 91.6699 324.882 91.0096C324.485 90.3494 323.941 89.841 323.25 89.4844C322.573 89.1279 321.823 88.9496 320.999 88.9496C320.146 88.9496 319.381 89.1213 318.704 89.4646C318.028 89.8079 317.491 90.3097 317.094 90.97C316.711 91.617 316.52 92.3895 316.52 93.2875C316.52 94.1722 316.711 94.9513 317.094 95.6248C317.491 96.285 318.028 96.7934 318.704 97.15C319.381 97.4933 320.146 97.665 320.999 97.665C321.823 97.665 322.573 97.4867 323.25 97.1302C323.941 96.7736 324.485 96.2652 324.882 95.605C325.279 94.9447 325.478 94.1788 325.478 93.3073Z" fill="#00229B"/>
<path d="M341.448 92.7527C341.448 93.2281 341.433 93.5912 341.404 93.8421H331.409C331.453 94.6608 331.674 95.3607 332.071 95.9417C332.468 96.5227 332.99 96.9651 333.637 97.2688C334.285 97.5593 334.991 97.7046 335.755 97.7046C336.756 97.7046 337.594 97.4867 338.271 97.0509C338.962 96.6152 339.418 96.0275 339.639 95.2881H341.271C340.977 96.3445 340.345 97.2094 339.374 97.8829C338.418 98.5431 337.212 98.8732 335.755 98.8732C334.623 98.8732 333.608 98.6488 332.711 98.1998C331.813 97.7376 331.107 97.0906 330.593 96.2586C330.092 95.4135 329.842 94.4297 329.842 93.3073C329.842 92.1849 330.092 91.2011 330.593 90.356C331.093 89.5108 331.791 88.8638 332.689 88.4148C333.586 87.9658 334.608 87.7413 335.755 87.7413C336.903 87.7413 337.903 87.9658 338.756 88.4148C339.624 88.8638 340.286 89.4712 340.742 90.2371C341.213 90.9898 341.448 91.8283 341.448 92.7527ZM339.881 92.7131C339.896 91.9076 339.712 91.2209 339.33 90.6531C338.962 90.0853 338.455 89.6561 337.807 89.3656C337.16 89.0751 336.454 88.9298 335.689 88.9298C334.542 88.9298 333.564 89.2599 332.755 89.9202C331.946 90.5804 331.497 91.5114 331.409 92.7131H339.881Z" fill="#00229B"/>
<path d="M346.281 89.0685V95.7833C346.281 96.4435 346.421 96.8991 346.701 97.15C346.98 97.4009 347.473 97.5263 348.179 97.5263H349.591V98.7148H347.936C346.848 98.7148 346.039 98.4903 345.509 98.0413C344.98 97.5791 344.715 96.8265 344.715 95.7833V89.0685H343.038V87.8998H344.715V85.1862H346.281V87.8998H349.591V89.0685H346.281Z" fill="#00229B"/>
<path d="M357.875 87.7017C358.787 87.7017 359.603 87.8734 360.324 88.2167C361.059 88.5601 361.633 89.0883 362.045 89.8013C362.471 90.5012 362.685 91.3595 362.685 92.3763V98.7148H361.162V92.5348C361.162 91.3595 360.831 90.4616 360.169 89.841C359.522 89.2203 358.632 88.91 357.5 88.91C356.338 88.91 355.411 89.2401 354.72 89.9004C354.028 90.5606 353.683 91.5312 353.683 92.8121V98.7148H352.138V84.0571H353.683V89.7419C354.065 89.0949 354.624 88.5931 355.36 88.2365C356.11 87.88 356.948 87.7017 357.875 87.7017Z" fill="#00229B"/>
<path d="M377 92.7527C377 93.2281 376.985 93.5912 376.956 93.8421H366.961C367.005 94.6608 367.226 95.3607 367.623 95.9417C368.02 96.5227 368.542 96.9651 369.189 97.2688C369.837 97.5593 370.543 97.7046 371.307 97.7046C372.308 97.7046 373.146 97.4867 373.823 97.0509C374.514 96.6152 374.97 96.0275 375.191 95.2881H376.823C376.529 96.3445 375.897 97.2094 374.926 97.8829C373.97 98.5431 372.764 98.8732 371.307 98.8732C370.175 98.8732 369.16 98.6488 368.263 98.1998C367.365 97.7376 366.659 97.0906 366.145 96.2586C365.644 95.4135 365.394 94.4297 365.394 93.3073C365.394 92.1849 365.644 91.2011 366.145 90.356C366.645 89.5108 367.343 88.8638 368.241 88.4148C369.138 87.9658 370.16 87.7413 371.307 87.7413C372.455 87.7413 373.455 87.9658 374.308 88.4148C375.176 88.8638 375.838 89.4712 376.294 90.2371C376.765 90.9898 377 91.8283 377 92.7527ZM375.433 92.7131C375.448 91.9076 375.264 91.2209 374.882 90.6531C374.514 90.0853 374.007 89.6561 373.359 89.3656C372.712 89.0751 372.006 88.9298 371.241 88.9298C370.094 88.9298 369.116 89.2599 368.307 89.9202C367.498 90.5804 367.049 91.5114 366.961 92.7131H375.433Z" fill="#00229B"/>
<path d="M381.37 89.8212C381.708 89.1477 382.223 88.6261 382.915 88.2563C383.621 87.8866 384.481 87.7017 385.496 87.7017V89.1477H385.077C383.959 89.1477 383.062 89.4184 382.385 89.9598C381.708 90.5012 381.37 91.4058 381.37 92.6735V98.7148H379.826V87.8998H381.37V89.8212Z" fill="#00229B"/>
</svg>
